<?xml version="1.0" encoding="UTF-8"?>
<svg version="1.1" xmlns="http://www.w3.org/2000/svg" viewBox="705 312 490 465">
<path d="M0 0 C1.75719232 -0.01827331 1.75719232 -0.01827331 3.54988348 -0.03691578 C6.79354438 -0.06442578 10.03591709 -0.06508857 13.27963543 -0.05416584 C16.78085912 -0.04882033 20.28182475 -0.07789788 23.78294373 -0.10235596 C30.63895845 -0.14444857 37.49463487 -0.15354668 44.35076354 -0.14998019 C49.92410656 -0.1473641 55.4973441 -0.15497742 61.07066727 -0.16983032 C62.67654565 -0.17402875 64.28242404 -0.17822395 65.88830245 -0.18241596 C66.6876143 -0.18450302 67.48692615 -0.18659007 68.31045957 -0.18874037 C83.42495396 -0.22653861 98.53925417 -0.22444682 113.65377624 -0.21080172 C127.47696198 -0.19965103 141.29940634 -0.24130076 155.12241881 -0.30752265 C169.32018708 -0.37501131 183.51760028 -0.40533162 197.71553195 -0.3960886 C205.68496116 -0.39160058 213.65370518 -0.40206302 221.62299728 -0.45187378 C228.40782864 -0.49392058 235.1915992 -0.50106688 241.97647427 -0.4632746 C245.43737286 -0.44496752 248.89629452 -0.44263386 252.3570385 -0.4839859 C256.11296335 -0.52027884 259.86362084 -0.49495851 263.61938477 -0.45410156 C264.70869148 -0.47913726 265.79799819 -0.50417295 266.92031419 -0.52996731 C271.56614925 -0.42157269 274.32882726 -0.22031483 277.84386373 2.98151207 C279.87482738 5.50461689 281.66844245 8.07770283 283.43667603 10.78881836 C284.35552886 11.90855036 285.29026003 13.01569854 286.24917603 14.10131836 C288.43667603 16.78881836 288.43667603 16.78881836 289.99917603 19.47631836 C291.26775465 21.87844208 291.26775465 21.87844208 293.43667603 23.10131836 C295.71447367 25.02321012 295.95022181 26.00682799 296.81167603 28.78881836 C297.97920375 32.37114027 297.97920375 32.37114027 301.37417603 34.28881836 C302.38480103 34.78381836 303.39542603 35.27881836 304.43667603 35.78881836 C305.68282978 37.7494336 306.59036497 39.70730129 307.47964478 41.85131836 C308.52274508 43.96306429 309.74014372 45.17778768 311.43667603 46.78881836 C311.89042603 47.57256836 312.34417603 48.35631836 312.81167603 49.16381836 C314.3985028 51.95105455 314.3985028 51.95105455 317.06167603 54.41381836 C319.43667603 56.78881836 319.43667603 56.78881836 320.43667603 59.78881836 C320.95230103 60.30444336 321.46792603 60.82006836 321.99917603 61.35131836 C322.71073853 62.06288086 322.71073853 62.06288086 323.43667603 62.78881836 C323.43667603 63.44881836 323.43667603 64.10881836 323.43667603 64.78881836 C324.42667603 64.78881836 325.41667603 64.78881836 326.43667603 64.78881836 C327.09667603 66.43881836 327.75667603 68.08881836 328.43667603 69.78881836 C329.09667603 69.78881836 329.75667603 69.78881836 330.43667603 69.78881836 C331.09667603 71.76881836 331.75667603 73.74881836 332.43667603 75.78881836 C327.83744609 81.12985957 322.6015677 84.26608089 315.50723267 85.15649414 C312.30764785 85.28896023 309.13828206 85.28574937 305.93667603 85.22631836 C304.86030884 85.2334082 303.78394165 85.24049805 302.67495728 85.24780273 C296.7729039 85.20107515 291.9011001 84.58638437 286.38442993 82.48583984 C283.73142908 81.53643931 281.1758522 81.27863964 278.37417603 81.10131836 C277.43444946 81.03557617 276.4947229 80.96983398 275.52651978 80.90209961 C274.83687134 80.8647168 274.1472229 80.82733398 273.43667603 80.78881836 C273.43667603 80.12881836 273.43667603 79.46881836 273.43667603 78.78881836 C272.43547478 78.79214928 272.43547478 78.79214928 271.41404724 78.79554749 C264.35510809 78.81797679 257.29617933 78.83287868 250.23721313 78.84375 C247.61611519 78.84872423 244.99501994 78.85550599 242.37393188 78.86425781 C173.95305653 79.0867009 173.95305653 79.0867009 165.45620728 70.87475586 C164.78976196 70.18639648 164.12331665 69.49803711 163.43667603 68.78881836 C162.62843384 68.30413086 161.82019165 67.81944336 160.98745728 67.32006836 C158.12423351 65.60125715 155.98897747 63.64185462 153.62417603 61.28881836 C152.83398071 60.51538086 152.0437854 59.74194336 151.22964478 58.94506836 C149.43667603 56.78881836 149.43667603 56.78881836 149.43667603 53.78881836 C148.83855103 53.72694336 148.24042603 53.66506836 147.62417603 53.60131836 C144.5535723 52.46080841 143.9508524 50.61069251 142.43667603 47.78881836 C141.77667603 47.12881836 141.11667603 46.46881836 140.43667603 45.78881836 C140.43667603 44.79881836 140.43667603 43.80881836 140.43667603 42.78881836 C139.50855103 42.41756836 139.50855103 42.41756836 138.56167603 42.03881836 C135.99417787 40.52852532 135.71851873 39.42790628 134.43667603 36.78881836 C132.8111432 35.08200889 131.14551608 33.41221641 129.43667603 31.78881836 C127.43667603 29.78881836 127.43667603 29.78881836 126.31167603 26.53881836 C124.36781666 21.75393376 120.59947875 19.56934686 116.43667603 16.78881836 C115.56849243 16.05405273 115.56849243 16.05405273 114.68276978 15.30444336 C108.53150845 11.1536792 102.53216786 10.34346569 95.24917603 10.53881836 C94.46864868 10.54397461 93.68812134 10.54913086 92.88394165 10.55444336 C88.92503965 10.60816892 85.315955 10.95849324 81.43667603 11.78881836 C79.66689841 11.85340878 77.89497451 11.87492901 76.12417603 11.85131836 C75.24116821 11.84229492 74.3581604 11.83327148 73.44839478 11.82397461 C72.78452759 11.81237305 72.1206604 11.80077148 71.43667603 11.78881836 C71.43667603 12.44881836 71.43667603 13.10881836 71.43667603 13.78881836 C70.87980103 13.85069336 70.32292603 13.91256836 69.74917603 13.97631836 C66.49190077 15.12076642 64.78676623 17.3150392 62.43667603 19.78881836 C61.77667603 20.11881836 61.11667603 20.44881836 60.43667603 20.78881836 C59.94167603 22.27381836 59.94167603 22.27381836 59.43667603 23.78881836 C58.77667603 23.78881836 58.11667603 23.78881836 57.43667603 23.78881836 C57.35417603 24.69631836 57.27167603 25.60381836 57.18667603 26.53881836 C56.31617019 30.3110103 55.49436774 31.47488949 52.43667603 33.78881836 C48.77548873 35.31431307 46.44167803 35.78881836 42.43667603 35.78881836 C42.43667603 36.44881836 42.43667603 37.10881836 42.43667603 37.78881836 C38.97167603 38.28381836 38.97167603 38.28381836 35.43667603 38.78881836 C35.43667603 39.44881836 35.43667603 40.10881836 35.43667603 40.78881836 C34.77667603 40.78881836 34.11667603 40.78881836 33.43667603 40.78881836 C33.83262984 46.15503448 34.24515002 50.82135942 36.43667603 55.78881836 C36.43667603 57.10881836 36.43667603 58.42881836 36.43667603 59.78881836 C37.55042603 60.22194336 37.55042603 60.22194336 38.68667603 60.66381836 C41.43667603 61.78881836 41.43667603 61.78881836 43.08267212 62.83764648 C46.59692688 64.25763575 50.11512981 64.10737292 53.85073853 64.13256836 C55.06701431 64.15450256 55.06701431 64.15450256 56.30786133 64.17687988 C59.77088957 64.23907924 63.23409217 64.27885301 66.69741821 64.32055664 C69.22788436 64.35421402 71.75796668 64.39932974 74.28823853 64.44506836 C75.07469757 64.45034546 75.86115662 64.45562256 76.67144775 64.46105957 C82.21103222 64.56317455 82.21103222 64.56317455 84.43667603 66.78881836 C85.13811944 68.68583943 85.77582739 70.60680109 86.37417603 72.53881836 C88.76981779 80.29618259 88.76981779 80.29618259 93.43667603 86.78881836 C94.10919703 90.29183986 94.6435397 93.78210714 95.11636353 97.31616211 C95.90513304 102.45212725 97.44096505 105.45903332 100.43667603 109.78881836 C101.15933228 112.83178711 101.15933228 112.83178711 101.49917603 115.97631836 C102.89206773 126.91661538 102.89206773 126.91661538 107.43667603 136.78881836 C107.43667603 137.77881836 107.43667603 138.76881836 107.43667603 139.78881836 C108.09667603 139.78881836 108.75667603 139.78881836 109.43667603 139.78881836 C110.44310353 141.45161163 111.4425301 143.1186532 112.43667603 144.78881836 C113.42667603 145.44881836 114.41667603 146.10881836 115.43667603 146.78881836 C116.15657348 148.52311678 116.87337426 150.25895573 117.55776978 152.00756836 C118.44430019 154.06315333 118.44430019 154.06315333 120.87417603 156.10131836 C131.14685707 166.87510579 132.07029775 185.90439036 131.84829712 200.0144043 C131.81159988 202.41880725 131.80728102 204.82166286 131.80776978 207.22631836 C131.76534262 216.26886636 131.15503636 224.88854235 129.43667603 233.78881836 C128.77667603 233.78881836 128.11667603 233.78881836 127.43667603 233.78881836 C127.45987915 234.38049805 127.48308228 234.97217773 127.50698853 235.58178711 C127.69615245 243.86446457 127.69615245 243.86446457 125.43667603 247.78881836 C122.43667603 249.78881836 122.43667603 249.78881836 118.43667603 249.78881836 C118.43667603 250.44881836 118.43667603 251.10881836 118.43667603 251.78881836 C117.77667603 251.78881836 117.11667603 251.78881836 116.43667603 251.78881836 C116.43667603 252.44881836 116.43667603 253.10881836 116.43667603 253.78881836 C115.77667603 253.78881836 115.11667603 253.78881836 114.43667603 253.78881836 C114.43667603 254.77881836 114.43667603 255.76881836 114.43667603 256.78881836 C92.65667603 256.78881836 70.87667603 256.78881836 48.43667603 256.78881836 C48.43667603 203.32881836 48.43667603 149.86881836 48.43667603 94.78881836 C26.65667603 94.78881836 4.87667603 94.78881836 -17.56332397 94.78881836 C-17.80397683 73.06766984 -17.80397683 73.06766984 -17.85629272 63.80053711 C-17.89214475 57.47975402 -17.93453201 51.15949299 -18.01596069 44.83911133 C-18.08120838 39.74271556 -18.11704181 34.64687967 -18.13258743 29.55009842 C-18.14366402 27.60678926 -18.16529467 25.66351036 -18.19770432 23.72043991 C-18.24134039 20.99565459 -18.24725522 18.27317487 -18.24447632 15.5480957 C-18.26604797 14.74680237 -18.28761963 13.94550903 -18.30984497 13.11993408 C-18.2636262 8.92452284 -17.78119869 7.08945738 -15.24093628 3.58422279 C-10.79805096 -0.56684324 -5.78940148 -0.05640227 0 0 Z " fill="#2E2327" transform="translate(739.5633239746094,323.211181640625)"/>
<path d="M0 0 C7.46938792 -0.06296393 14.93781114 -0.12306164 22.40723419 -0.15525055 C25.88578175 -0.17107253 29.36410893 -0.19220515 32.8425293 -0.22631836 C36.83644712 -0.26524063 40.83013263 -0.27972629 44.82421875 -0.29296875 C46.06709152 -0.30845261 47.30996429 -0.32393646 48.59049988 -0.33988953 C49.75132584 -0.34011612 50.91215179 -0.34034271 52.1081543 -0.34057617 C53.63704536 -0.35056892 53.63704536 -0.35056892 55.19682312 -0.36076355 C58.4981351 0.06410904 60.33453194 1.03202783 63 3 C65.07172478 6.10758717 65.24961833 6.7560969 65.24609566 10.27348614 C65.25007775 11.15030818 65.25405985 12.02713022 65.25816262 12.93052262 C65.24942409 14.37652045 65.24942409 14.37652045 65.24050903 15.85173035 C65.24221788 16.87518171 65.24392673 17.89863308 65.24568737 18.95309812 C65.24899402 22.39873389 65.23795916 25.84417695 65.22705078 29.28979492 C65.22648692 31.75326025 65.22680273 34.21672591 65.22793579 36.68019104 C65.22839192 41.99220975 65.22270177 47.30416793 65.21146011 52.61617088 C65.19521708 60.29645817 65.18999834 67.9767217 65.18748413 75.6570243 C65.18310514 88.11731026 65.16979053 100.57757005 65.15087891 113.0378418 C65.13252537 125.14298369 65.11836629 137.24811849 65.10986328 149.35327148 C65.10933783 150.09923221 65.10881239 150.84519293 65.10827102 151.61375853 C65.10566097 155.35596439 65.10313355 159.09817031 65.10064721 162.84037626 C65.07990837 193.8936032 65.04452881 224.94679763 65 256 C57.52549267 256.15201804 50.05138317 256.25716025 42.57568359 256.32958984 C40.03223779 256.35978007 37.48889622 256.40073681 34.94580078 256.45263672 C31.29173081 256.52534744 27.63903584 256.55943531 23.984375 256.5859375 C22.84570984 256.61690521 21.70704468 256.64787292 20.53387451 256.67977905 C17.56798114 256.68104612 14.89754977 256.63340388 12 256 C9.35999459 253.1909092 8.29001069 251.49148356 7.5625 247.75 C7.376875 247.1725 7.19125 246.595 7 246 C6.2059375 245.75636719 5.411875 245.51273438 4.59375 245.26171875 C2 244 2 244 0.77734375 241.34765625 C0.50019531 240.26355469 0.22304687 239.17945313 -0.0625 238.0625 C-1.51649577 232.70348703 -3.2204589 227.59761139 -5.265625 222.4375 C-6.04925009 219.83653161 -6.13504177 217.70083541 -6 215 C-6.66 215 -7.32 215 -8 215 C-8.08636719 213.80761719 -8.17273437 212.61523438 -8.26171875 211.38671875 C-8.40242382 209.82020226 -8.54441832 208.25380121 -8.6875 206.6875 C-8.74099609 205.90181641 -8.79449219 205.11613281 -8.84960938 204.30664062 C-9.06595651 202.09613726 -9.31837127 200.1150497 -10 198 C-12.32347622 196.01247878 -12.32347622 196.01247878 -15 195 C-17.4375 192.75 -17.4375 192.75 -20 190 C-20.50917969 189.46117187 -21.01835938 188.92234375 -21.54296875 188.3671875 C-25.91389331 183.55377429 -28.82232467 179.25738102 -29.1875 172.5625 C-29.125625 171.716875 -29.06375 170.87125 -29 170 C-29.66 170 -30.32 170 -31 170 C-33.27536832 163.60729853 -34.89179611 157.27394441 -36.25390625 150.625 C-36.50011719 149.75875 -36.74632812 148.8925 -37 148 C-37.66 147.67 -38.32 147.34 -39 147 C-39.4921875 144.734375 -39.4921875 144.734375 -39.875 141.75 C-41.45870763 131.48026513 -44.35389142 122.40893065 -49.6328125 113.4375 C-51 111 -51 111 -52.046875 108.32421875 C-53.1896829 105.53745359 -54.85537536 104.07313715 -57 102 C-57 101.34 -57 100.68 -57 100 C-56.030625 99.71125 -55.06125 99.4225 -54.0625 99.125 C-50.89335797 98.35785318 -50.89335797 98.35785318 -50 96 C-48.700625 95.87625 -47.40125 95.7525 -46.0625 95.625 C-43.90689011 95.45325706 -43.90689011 95.45325706 -42 95 C-40.66666667 93.16666667 -40.66666667 93.16666667 -40 91 C-38.1875 89.125 -38.1875 89.125 -36 88 C-32.62942669 88.65767284 -31.36504266 89.45973686 -29.4375 92.3125 C-28.963125 93.199375 -28.48875 94.08625 -28 95 C-26.23222768 97.32020117 -24.56166679 99.50314092 -22.375 101.4375 C-20.39670767 103.68555946 -19.82095654 106.15822737 -19 109 C-18.34 109 -17.68 109 -17 109 C-12 114.35714286 -12 114.35714286 -12 118 C-11.34 118 -10.68 118 -10 118 C-8.98648336 119.65848177 -7.98879205 121.32665961 -7 123 C-5.9171875 124.0828125 -5.9171875 124.0828125 -4.8125 125.1875 C-4.214375 125.785625 -3.61625 126.38375 -3 127 C-3 127.66 -3 128.32 -3 129 C-2.01 129 -1.02 129 0 129 C0 104.58 0 80.16 0 55 C7.356545 53.528691 11.95016626 52.77258601 19 53 C18.505 50.03 18.505 50.03 18 47 C17.34 47 16.68 47 16 47 C16 46.34 16 45.68 16 45 C10.72 44.34 5.44 43.68 0 43 C0 28.81 0 14.62 0 0 Z " fill="#FE0022" transform="translate(1117,324)"/>
<path d="M0 0 C2.25473176 3.38209765 2.52740931 5.50705432 3.0625 9.5 C3.51667276 12.83310259 3.93568845 15.80706535 5 19 C5.99 19.33 6.98 19.66 8 20 C10.5307953 22.39759555 12.91352023 24.90884565 15.3125 27.4375 C18.16093526 30.1534499 21.15296075 32.4499037 24.328125 34.765625 C26 36 26 36 27 37 C27.09417773 39.08619022 27.11742878 41.17560477 27.11352539 43.26391602 C27.11364593 43.92815299 27.11376646 44.59238997 27.11389065 45.27675533 C27.11314176 47.43583921 27.10551468 49.59483773 27.09765625 51.75390625 C27.09664917 53.06999878 27.09564209 54.38609131 27.09460449 55.74206543 C27.08935248 60.68221909 27.07539139 65.62236037 27.0625 70.5625 C27.041875 81.596875 27.02125 92.63125 27 104 C3.9 104 -19.2 104 -43 104 C-43.08021762 81.36971847 -43.08021762 81.36971847 -43.09765625 71.75 C-43.10962857 65.17672512 -43.12381703 58.60350577 -43.15087891 52.03027344 C-43.1725523 46.73294846 -43.18455698 41.43568299 -43.18975449 36.13831711 C-43.19346016 34.11363157 -43.20069604 32.08894941 -43.21146011 30.06428909 C-43.22590194 27.23630898 -43.22798102 24.40857724 -43.22705078 21.58056641 C-43.23424133 20.73683975 -43.24143188 19.8931131 -43.24884033 19.02381897 C-43.22810432 13.22810432 -43.22810432 13.22810432 -41 11 C-38.57421875 10.47265625 -38.57421875 10.47265625 -35.6875 10.0625 C-31.37463133 9.35767321 -28.72982515 8.25752575 -25 6 C-22.01140282 5.46032146 -19.02923454 5.19138955 -16 5 C-16 4.34 -16 3.68 -16 3 C-14.35 3 -12.7 3 -11 3 C-11 2.34 -11 1.68 -11 1 C-7.26513121 0.4254048 -3.78706732 0 0 0 Z " fill="#FE0022" transform="translate(1001,477)"/>
<path d="M0 0 C1.79158489 -0.02696365 3.58328473 -0.04637917 5.375 -0.0625 C6.37273437 -0.07410156 7.37046875 -0.08570313 8.3984375 -0.09765625 C11 0 11 0 13 1 C13 7.93 13 14.86 13 22 C20.59 22 28.18 22 36 22 C36 25.96 36 29.92 36 34 C28.41 34 20.82 34 13 34 C13 40.93 13 47.86 13 55 C0.67857143 55.26785714 0.67857143 55.26785714 -3 53 C-3 53.66 -3 54.32 -3 55 C-7.47915271 55.0292814 -11.95828042 55.04689296 -16.4375 55.0625 C-17.69755859 55.07087891 -18.95761719 55.07925781 -20.25585938 55.08789062 C-38.29750488 55.13499675 -38.29750488 55.13499675 -43 52 C-43.1875 49.375 -43.1875 49.375 -43 47 C-44.65 46.67 -46.3 46.34 -48 46 C-48 45.34 -48 44.68 -48 44 C-48.66 44 -49.32 44 -50 44 C-50.495 42.515 -50.495 42.515 -51 41 C-51.9793879 39.97980427 -52.97895449 38.97850195 -54 38 C-56.68570735 32.6285853 -56.02423049 23.85533537 -55 18 C-52.95540267 13.92943493 -50.56310195 10.84761963 -47 8 C-46.34 8 -45.68 8 -45 8 C-45 7.34 -45 6.68 -45 6 C-43.75264433 5.3490741 -42.50198168 4.70448331 -41.25 4.0625 C-40.55390625 3.70285156 -39.8578125 3.34320312 -39.140625 2.97265625 C-34.69551632 0.95288972 -30.73542941 0.87150979 -25.86328125 0.8671875 C-25.18323532 0.86623077 -24.50318939 0.86527405 -23.80253601 0.86428833 C-22.3712047 0.86360993 -20.93987026 0.86544045 -19.50854492 0.86962891 C-17.30966372 0.87500694 -15.11098446 0.86965978 -12.91210938 0.86328125 C-11.52083288 0.8639416 -10.12955651 0.86522188 -8.73828125 0.8671875 C-6.83622925 0.86887939 -6.83622925 0.86887939 -4.89575195 0.87060547 C-2 1 -2 1 -1 2 C-0.67 1.34 -0.34 0.68 0 0 Z " fill="#FEF2F4" transform="translate(1131,616)"/>
<path d="M0 0 C1.093125 0.2475 2.18625 0.495 3.3125 0.75 C9.59380638 2.8792564 12.88593833 7.2635706 16 13 C16.495 13.495 16.495 13.495 17 14 C17.9407659 22.14230137 18.92901242 32.4720104 14.3125 39.5625 C11.91184512 42.37745229 9.45443402 44.56065249 6 46 C5.34 46 4.68 46 4 46 C3.67 46.99 3.34 47.98 3 49 C-2.15899417 51.57949709 -11.12646639 50.60298462 -16.69921875 49.43359375 C-20.30483427 48.16063152 -21.84848626 47.2272706 -24 44 C-25.65204456 43.29788106 -27.31923769 42.63028587 -29 42 C-33.31378217 37.68621783 -33.13116298 30.13935797 -33.1875 24.3125 C-33.01379318 17.05768581 -32.68197791 11.85247239 -28 6 C-26.36345179 4.62986661 -24.70196405 3.2879728 -23 2 C-22.67 1.34 -22.34 0.68 -22 0 C-15.23569985 -1.92586401 -6.09868551 -4.06579034 0 0 Z " fill="#F50C29" transform="translate(807,619)"/>
<path d="M0 0 C2.51522426 2.56085191 5 5.23953946 5 9 C5.66 9 6.32 9 7 9 C9.52775351 12.79163027 9.22443035 15.80874031 9.125 20.1875 C9.11597656 20.93708984 9.10695313 21.68667969 9.09765625 22.45898438 C9.07412578 24.30612654 9.03825561 26.15310412 9 28 C8.34 28 7.68 28 7 28 C7 28.99 7 29.98 7 31 C6.34 31 5.68 31 5 31 C4.814375 32.1446875 4.814375 32.1446875 4.625 33.3125 C4 36 4 36 2 39 C-0.625 39.6875 -0.625 39.6875 -3 40 C-3 40.66 -3 41.32 -3 42 C-3.99 42 -4.98 42 -6 42 C-6 42.66 -6 43.32 -6 44 C-7.32 44 -8.64 44 -10 44 C-10 44.66 -10 45.32 -10 46 C-25.33570636 47.09107792 -25.33570636 47.09107792 -32.265625 41.41015625 C-34.05550221 39.78532085 -34.05550221 39.78532085 -37 39 C-39.12710211 34.9033589 -40.42160623 31.63766855 -40 27 C-40.66 27 -41.32 27 -42 27 C-42.08144943 24.29105233 -42.14070614 21.58458737 -42.1875 18.875 C-42.21263672 18.11445312 -42.23777344 17.35390625 -42.26367188 16.5703125 C-42.32763161 11.62409279 -41.76618881 8.27680255 -39 4 C-36.375 2.25 -36.375 2.25 -34 1 C-33.67 0.34 -33.34 -0.32 -33 -1 C-32.01 -1 -31.02 -1 -30 -1 C-30 -1.66 -30 -2.32 -30 -3 C-19.98179285 -4.86702951 -8.89549274 -5.80140831 0 0 Z " fill="#F70826" transform="translate(1005,623)"/>
<path d="M0 0 C4.98041064 -0.09948577 9.96023252 -0.17175686 14.94140625 -0.21972656 C16.63291511 -0.2397406 18.32435567 -0.26696073 20.015625 -0.30175781 C22.45850554 -0.35073065 24.90046511 -0.37307033 27.34375 -0.390625 C28.08991577 -0.41127014 28.83608154 -0.43191528 29.6048584 -0.45318604 C35.12265048 -0.45550093 39.41200423 0.87529604 44 4 C47 7.9375 47 7.9375 47 11 C47.66 11 48.32 11 49 11 C50.77477099 17.18969718 51.28914172 23.88002509 48.80078125 29.90234375 C46.36521458 34.08023016 44.13304797 37.37064225 40 40 C39.34 40 38.68 40 38 40 C38 40.66 38 41.32 38 42 C28.43 42 18.86 42 9 42 C9 44.97 9 47.94 9 51 C6.03 51 3.06 51 0 51 C0 45.06 0 39.12 0 33 C11.22 33 22.44 33 34 33 C34 32.34 34 31.68 34 31 C35.31200404 29.64567325 36.64631404 28.31266518 38 27 C39.20526701 24.58946598 39.305818 22.81450503 39.4375 20.125 C39.52837891 18.82949219 39.52837891 18.82949219 39.62109375 17.5078125 C39.19838814 14.7386361 39.19838814 14.7386361 36.44897461 12.88134766 C32.5615067 10.76081055 29.5117478 10.39830135 25.1953125 10.390625 C24.1093428 10.36582062 24.1093428 10.36582062 23.00143433 10.34051514 C20.70920123 10.29227455 18.41763024 10.27071944 16.125 10.25 C14.56246712 10.22181999 12.99996476 10.19188973 11.4375 10.16015625 C7.6250546 10.08652322 3.81297157 10.03680352 0 10 C0 6.7 0 3.4 0 0 Z " fill="#F50725" transform="translate(831,618)"/>
<path d="M0 0 C2.23598659 0.04456707 4.47089699 0.06151925 6.70727539 0.07348633 C17.59926704 0.17641548 17.59926704 0.17641548 18.77954102 1.35668945 C18.92069263 4.02727796 18.82201209 6.68101183 18.77954102 9.35668945 C17.94817627 9.35556152 17.11681152 9.35443359 16.26025391 9.35327148 C13.13403558 9.36327956 10.00952949 9.40012252 6.88378906 9.4543457 C4.88241172 9.4811488 2.88070331 9.47782284 0.87915039 9.47387695 C-6.43793063 9.62132443 -11.59453805 10.23642707 -17.5859375 14.58666992 C-21.09068612 18.38195408 -21.57224464 22.49597681 -21.39624023 27.44262695 C-20.95729 32.22230729 -19.24375759 34.51556261 -15.72045898 37.60668945 C-11.55954183 41.02710441 -9.12201641 41.50751162 -3.68139648 41.6730957 C-2.37944336 41.71499023 -1.07749023 41.75688477 0.26391602 41.80004883 C1.64412147 41.83986245 3.02432984 41.87957468 4.40454102 41.91918945 C5.79257516 41.96238352 7.18059629 42.0059981 8.56860352 42.05004883 C11.97214358 42.15640946 15.3757588 42.2584366 18.77954102 42.35668945 C18.77954102 45.32668945 18.77954102 48.29668945 18.77954102 51.35668945 C14.35048379 51.45615865 9.92203192 51.52843763 5.4921875 51.57641602 C3.98784039 51.59643308 2.48357013 51.62365572 0.97949219 51.65844727 C-1.19282061 51.70740891 -3.36409805 51.72975598 -5.53686523 51.74731445 C-6.84083252 51.76826172 -8.1447998 51.78920898 -9.48828125 51.81079102 C-14.05201214 51.25551271 -16.40709976 49.85145078 -20.22045898 47.35668945 C-20.22045898 46.69668945 -20.22045898 46.03668945 -20.22045898 45.35668945 C-21.87045898 45.02668945 -23.52045898 44.69668945 -25.22045898 44.35668945 C-25.22045898 43.69668945 -25.22045898 43.03668945 -25.22045898 42.35668945 C-25.88045898 42.35668945 -26.54045898 42.35668945 -27.22045898 42.35668945 C-27.71545898 40.87168945 -27.71545898 40.87168945 -28.22045898 39.35668945 C-29.19984689 38.33649372 -30.19941347 37.3351914 -31.22045898 36.35668945 C-33.90616633 30.98527475 -33.24468948 22.21202483 -32.22045898 16.35668945 C-30.17586166 12.28612439 -27.78356093 9.20430908 -24.22045898 6.35668945 C-23.56045898 6.35668945 -22.90045898 6.35668945 -22.22045898 6.35668945 C-22.22045898 5.69668945 -22.22045898 5.03668945 -22.22045898 4.35668945 C-15.11685585 -0.37593445 -8.22585701 -0.16405888 0 0 Z " fill="#F90726" transform="translate(1108.220458984375,617.643310546875)"/>
<path d="M0 0 C12.65940328 -0.6482767 19.92785895 0.88940067 29.46875 9.21875 C32.84039656 13.14086947 32.13174634 18.1265941 32.09765625 23.046875 C32.0962413 23.81807678 32.09482635 24.58927856 32.09336853 25.3838501 C32.08778534 27.83927338 32.07523595 30.29460442 32.0625 32.75 C32.05748283 34.41796743 32.0529203 36.08593629 32.04882812 37.75390625 C32.03782141 41.83597287 32.02056836 45.91797081 32 50 C29.36 50 26.72 50 24 50 C23.97494385 49.12263184 23.9498877 48.24526367 23.92407227 47.34130859 C23.82854616 44.06482809 23.72933757 40.78850102 23.62768555 37.51220703 C23.58455749 36.09818835 23.54286832 34.68412498 23.50268555 33.27001953 C23.4444425 31.2293556 23.38090859 29.18891205 23.31640625 27.1484375 C23.26141968 25.31031494 23.26141968 25.31031494 23.20532227 23.43505859 C23.01221417 20.20434416 22.71218801 17.15753285 22 14 C20.21734114 12.6501992 20.21734114 12.6501992 18 12 C17.12021484 11.50113281 17.12021484 11.50113281 16.22265625 10.9921875 C13.51472494 9.78337458 11.20130928 9.58580781 8.25 9.375 C7.26515625 9.30023437 6.2803125 9.22546875 5.265625 9.1484375 C4.51796875 9.09945312 3.7703125 9.05046875 3 9 C3 9.66 3 10.32 3 11 C2.195625 11.28875 1.39125 11.5775 0.5625 11.875 C-2.1326468 12.73262568 -2.1326468 12.73262568 -3 15 C-3.66 15 -4.32 15 -5 15 C-5.82927069 19.40900502 -6.18231714 23.66603007 -6.31640625 28.1484375 C-6.33718735 28.80582916 -6.35796844 29.46322083 -6.37937927 30.14053345 C-6.44420753 32.21859362 -6.50344564 34.29676856 -6.5625 36.375 C-6.60574888 37.79298011 -6.64936509 39.21094907 -6.69335938 40.62890625 C-6.79981918 44.0858188 -6.90126984 47.54285706 -7 51 C-10.3 51 -13.6 51 -17 51 C-17.07457894 46.42850243 -17.12880276 41.85736491 -17.16479492 37.28540039 C-17.17981105 35.7326032 -17.20023028 34.17984791 -17.22631836 32.62719727 C-17.26302073 30.38547376 -17.27979787 28.14431461 -17.29296875 25.90234375 C-17.30845261 25.21663803 -17.32393646 24.53093231 -17.33988953 23.82444763 C-17.34210531 17.36898949 -15.69688339 12.94520779 -11.4375 8.0625 C-9 6 -9 6 -7 6 C-7 5.34 -7 4.68 -7 4 C-4 2 -4 2 0 2 C0 1.34 0 0.68 0 0 Z " fill="#F40A28" transform="translate(923,618)"/>
<path d="M0 0 C17.16 0 34.32 0 52 0 C52 2.97 52 5.94 52 9 C51.67 9.33 51.34 9.66 51 10 C44.4 10 37.8 10 31 10 C31 23.53 31 37.06 31 51 C27.37 51 23.74 51 20 51 C20 37.47 20 23.94 20 10 C13.4 10 6.8 10 0 10 C0 6.7 0 3.4 0 0 Z " fill="#F31F38" transform="translate(1019,618)"/>
<path d="M0 0 C15.18 0 30.36 0 46 0 C46 3.63 46 7.26 46 11 C39.4 11 32.8 11 26 11 C26 24.53 26 38.06 26 52 C22.37 52 18.74 52 15 52 C15 38.14 15 24.28 15 10 C10.05 10 5.1 10 0 10 C0 6.7 0 3.4 0 0 Z " fill="#F2203A" transform="translate(722,617)"/>
<path d="M0 0 C3.3 0 6.6 0 10 0 C10 6.6 10 13.2 10 20 C17.92 20 25.84 20 34 20 C34 23.63 34 27.26 34 31 C26.08 31 18.16 31 10 31 C10 37.6 10 44.2 10 51 C6.7 51 3.4 51 0 51 C0 34.17 0 17.34 0 0 Z " fill="#F70423" transform="translate(1133,618)"/>
<path d="M0 0 C2.64 0 5.28 0 8 0 C8 16.83 8 33.66 8 51 C5.36 51 2.72 51 0 51 C0 34.17 0 17.34 0 0 Z " fill="#F70322" transform="translate(1174,618)"/>
<path d="M0 0 C0.92941406 -0.00515625 1.85882812 -0.0103125 2.81640625 -0.015625 C7.30147593 0.43889771 10.57824569 2.483757 13.46484375 5.98828125 C15.70421335 11.19549009 14.75643188 17.67932323 14.4375 23.25 C13.7775 23.25 13.1175 23.25 12.4375 23.25 C12.31568359 24.15492188 12.31568359 24.15492188 12.19140625 25.078125 C10.94239577 28.67631063 8.16884974 29.59108535 4.91796875 31.265625 C0.2337524 33.1245581 -3.57837938 33.06168571 -8.3125 31.125 C-11.08906459 28.81119618 -12.76756414 26.37451799 -14.5625 23.25 C-14.5625 22.59 -14.5625 21.93 -14.5625 21.25 C-15.2225 21.25 -15.8825 21.25 -16.5625 21.25 C-16.5625 17.62 -16.5625 13.99 -16.5625 10.25 C-15.9025 10.25 -15.2425 10.25 -14.5625 10.25 C-14.459375 9.486875 -14.35625 8.72375 -14.25 7.9375 C-13.49203731 4.97455494 -12.97443803 4.05895352 -10.5625 2.25 C-6.91825776 0.53173034 -4.01950039 -0.02236162 0 0 Z " fill="#FEFBFB" transform="translate(800.5625,627.75)"/>
<path d="M0 0 C4.61201914 2.88452068 8.95641931 6.89104827 11 12 C11.53208868 19.58226371 11.53208868 19.58226371 10 23 C8.37064759 24.37868281 6.70250393 25.71274093 5 27 C4.34 27.99 3.68 28.98 3 30 C-1.31888854 32.41349654 -5.18563858 32.16319869 -10 32 C-10 31.34 -10 30.68 -10 30 C-10.721875 29.95875 -11.44375 29.9175 -12.1875 29.875 C-16.18908626 28.63006205 -17.62231094 26.36839283 -20 23 C-20.8125 21.0625 -20.8125 21.0625 -21 19 C-21.103125 17.906875 -21.20625 16.81375 -21.3125 15.6875 C-20.86391782 10.39423033 -19.1629409 6.93834659 -15.26953125 3.44921875 C-10.50096251 0.07029279 -5.77536636 -1.59979661 0 0 Z " fill="#FEF6F7" transform="translate(993,628)"/>
</svg>
